<svg xmlns="http://www.w3.org/2000/svg" xmlns:xlink="http://www.w3.org/1999/xlink" version="1.1" x="0px" y="0px" viewBox="0 0 100 100" enable-background="new 0 0 100 100" xml:space="preserve"><path d="M72.99,55.994h-8.424c-0.128-1.827-0.483-3.62-1.059-5.307c3.516-0.689,6.578-2.924,8.7-4.68  c0.639-0.528,0.728-1.474,0.199-2.112c-0.526-0.638-1.474-0.727-2.111-0.199c-1.994,1.65-4.92,3.774-8.024,4.134  c-0.724-1.35-1.586-2.561-2.56-3.606c0.513-1.256,0.788-2.607,0.788-3.972c0-3.646-1.87-6.862-4.7-8.745l1.309-3.182l6.225,3.104  c0.215,0.107,0.443,0.158,0.668,0.158c0.551,0,1.081-0.305,1.344-0.831c0.369-0.742,0.068-1.642-0.674-2.012l-7.668-3.823  c-0.017-0.008-0.033-0.011-0.05-0.019c-0.017-0.007-0.031-0.019-0.049-0.026c-0.03-0.013-0.062-0.017-0.093-0.027  c-0.05-0.017-0.099-0.033-0.148-0.044c-0.047-0.01-0.093-0.017-0.14-0.022c-0.051-0.006-0.102-0.012-0.152-0.014  c-0.047-0.001-0.093,0.001-0.14,0.005c-0.05,0.003-0.099,0.008-0.148,0.016c-0.046,0.008-0.091,0.02-0.136,0.032  c-0.048,0.013-0.094,0.026-0.141,0.043c-0.044,0.017-0.086,0.036-0.128,0.057c-0.044,0.021-0.087,0.043-0.129,0.068  c-0.041,0.025-0.079,0.053-0.117,0.082c-0.039,0.029-0.076,0.059-0.112,0.092c-0.037,0.033-0.069,0.07-0.103,0.107  c-0.032,0.036-0.063,0.072-0.093,0.111c-0.029,0.041-0.056,0.085-0.082,0.13c-0.017,0.028-0.037,0.052-0.052,0.082  c-0.009,0.017-0.012,0.035-0.02,0.052c-0.008,0.017-0.019,0.03-0.025,0.047l-1.86,4.524c-0.976-0.301-2.012-0.464-3.085-0.464  s-2.11,0.164-3.086,0.464l-1.859-4.524c-0.007-0.017-0.018-0.031-0.025-0.048c-0.008-0.017-0.011-0.035-0.02-0.051  c-0.015-0.03-0.036-0.054-0.052-0.082c-0.026-0.045-0.052-0.088-0.082-0.129c-0.03-0.041-0.062-0.078-0.095-0.115  c-0.032-0.036-0.064-0.071-0.099-0.103c-0.038-0.035-0.077-0.066-0.118-0.096c-0.036-0.027-0.072-0.054-0.11-0.077  c-0.044-0.027-0.09-0.051-0.136-0.073c-0.04-0.019-0.08-0.038-0.121-0.054c-0.048-0.018-0.097-0.032-0.147-0.045  c-0.043-0.011-0.086-0.022-0.131-0.03c-0.05-0.009-0.1-0.013-0.151-0.017c-0.046-0.003-0.091-0.006-0.137-0.005  c-0.051,0.001-0.102,0.007-0.153,0.014c-0.047,0.006-0.093,0.012-0.14,0.023c-0.05,0.011-0.1,0.028-0.149,0.044  c-0.031,0.01-0.062,0.015-0.092,0.027c-0.017,0.007-0.031,0.018-0.048,0.025c-0.017,0.008-0.035,0.011-0.051,0.02l-7.668,3.823  c-0.741,0.37-1.042,1.27-0.673,2.012c0.262,0.526,0.792,0.831,1.343,0.831c0.225,0,0.454-0.051,0.668-0.158l6.225-3.104l1.308,3.182  c-2.83,1.883-4.701,5.099-4.701,8.745c0,1.375,0.281,2.736,0.801,4c-0.974,1.051-1.835,2.25-2.55,3.58  c-3.112-0.352-6.048-2.481-8.047-4.135c-0.639-0.528-1.584-0.438-2.112,0.2c-0.528,0.638-0.438,1.584,0.2,2.112  c2.124,1.757,5.189,3.991,8.707,4.679c-0.57,1.657-0.931,3.442-1.061,5.308H27.01c-0.829,0-1.5,0.672-1.5,1.5s0.671,1.5,1.5,1.5  h8.428c0.13,1.865,0.491,3.65,1.061,5.308c-3.517,0.688-6.583,2.923-8.706,4.679c-0.638,0.528-0.728,1.474-0.2,2.112  c0.296,0.358,0.725,0.544,1.157,0.544c0.336,0,0.675-0.113,0.955-0.344c1.999-1.654,4.935-3.783,8.046-4.135  c2.612,4.856,7.123,8.08,12.25,8.08s9.637-3.224,12.249-8.08c3.112,0.352,6.049,2.48,8.047,4.135  c0.279,0.231,0.618,0.344,0.955,0.344c0.432,0,0.86-0.186,1.157-0.544c0.527-0.639,0.438-1.584-0.2-2.112  c-2.124-1.756-5.189-3.991-8.706-4.679c0.569-1.657,0.931-3.442,1.061-5.308h8.428c0.828,0,1.5-0.672,1.5-1.5  S73.818,55.994,72.99,55.994z M50,32.751c4.135,0,7.5,3.364,7.5,7.5c0,0.625-0.078,1.248-0.231,1.851  c-0.002-0.001-0.004-0.003-0.007-0.004c-0.257-0.179-0.518-0.35-0.783-0.509c-0.21-0.126-0.424-0.241-0.638-0.355  c-0.062-0.033-0.124-0.071-0.187-0.103c-1.774-0.908-3.683-1.381-5.654-1.381c-0.452,0-0.9,0.034-1.345,0.083  c-0.091,0.01-0.182,0.02-0.273,0.032c-0.444,0.059-0.884,0.138-1.318,0.245c-0.011,0.003-0.022,0.007-0.034,0.01  c-0.428,0.107-0.85,0.243-1.267,0.396c-0.061,0.022-0.122,0.044-0.183,0.067c-0.421,0.163-0.837,0.345-1.245,0.554  c-0.03,0.016-0.06,0.034-0.09,0.05c-0.357,0.187-0.708,0.395-1.054,0.617c-0.089,0.057-0.179,0.114-0.267,0.173  c-0.064,0.043-0.129,0.081-0.192,0.125C42.579,41.5,42.5,40.877,42.5,40.251C42.5,36.116,45.865,32.751,50,32.751z M38.375,57.494  c0-4.849,1.863-9.145,4.721-11.833c0.007-0.006,0.016-0.008,0.023-0.015c0.98-0.919,2.047-1.624,3.167-2.109  c0.038-0.017,0.075-0.037,0.114-0.053c0.176-0.074,0.356-0.132,0.535-0.195c0.169-0.059,0.338-0.118,0.511-0.167  c0.15-0.043,0.301-0.081,0.453-0.116c0.199-0.046,0.4-0.083,0.602-0.117v29.213C42.798,71.163,38.375,64.978,38.375,57.494z   M51.5,72.102V42.886c0.056,0.009,0.111,0.015,0.167,0.025c0.135,0.025,0.269,0.055,0.402,0.086  c0.137,0.031,0.272,0.067,0.407,0.104c0.142,0.04,0.283,0.08,0.423,0.126c0.134,0.044,0.267,0.095,0.399,0.146  c0.131,0.05,0.264,0.097,0.394,0.152c0.252,0.109,0.502,0.227,0.748,0.358c0.053,0.028,0.104,0.061,0.155,0.089  c0.223,0.124,0.443,0.253,0.66,0.394c0.041,0.026,0.08,0.055,0.121,0.082c0.247,0.166,0.492,0.341,0.731,0.53l0,0  c0.264,0.209,0.521,0.432,0.774,0.668c0.014,0.013,0.031,0.021,0.046,0.034c1.233,1.163,2.296,2.635,3.098,4.36  c1.046,2.253,1.599,4.831,1.599,7.453C61.625,64.979,57.202,71.163,51.5,72.102z"></path></svg>