<svg xmlns="http://www.w3.org/2000/svg" xmlns:xlink="http://www.w3.org/1999/xlink" version="1.1" x="0px" y="0px" viewBox="0 0 512 512" enable-background="new 0 0 512 512" xml:space="preserve"><g><path d="M456,424H56V88h400V424z M72,408h368V104H72V408z"></path></g><g><rect x="64" y="184" width="384" height="16"></rect></g><g><path d="M112,132c-6.627,0-12,5.373-12,12s5.373,12,12,12s12-5.373,12-12S118.627,132,112,132L112,132z"></path></g><g><path d="M176,132c-6.627,0-12,5.373-12,12s5.373,12,12,12s12-5.373,12-12S182.627,132,176,132L176,132z"></path></g><g><path d="M240,132c-6.627,0-12,5.373-12,12s5.373,12,12,12s12-5.373,12-12S246.627,132,240,132L240,132z"></path></g></svg>