<?xml version="1.0" encoding="utf-8"?>
<!-- Generator: Adobe Illustrator 19.0.1, SVG Export Plug-In . SVG Version: 6.00 Build 0)  -->
<svg version="1.1" id="Layer_1" xmlns="http://www.w3.org/2000/svg" xmlns:xlink="http://www.w3.org/1999/xlink" x="0px" y="0px"
	 viewBox="0 0 96 96" enable-background="new 0 0 96 96" xml:space="preserve">
<g>
	<path fill="#547E97" d="M4.7,34.8c-1.3,4.3-2,8.8-2,13.5c0,25.6,19.9,46.4,44.5,46.6L4.7,34.8z"/>
	<path fill="#547E97" d="M87.7,26.7C80.2,11.8,65.1,1.6,47.8,1.6c-13.7,0-26,6.4-34.3,16.4L87.7,26.7z"/>
	<path fill="#547E97" d="M21.4,34.4l21.2,47.9l-7.4-37.9H84l-7,13.2l-2.8-4.8h-17l-7.6,42.2c24.1-1,43.3-21.4,43.3-46.6
		c0-4.8-0.7-9.5-2-13.9L21.4,34.4L21.4,34.4z"/>
</g>
</svg>
